<?xml version="1.0" encoding="UTF-8"?>
<svg id="Layer_2" data-name="Layer 2" xmlns="http://www.w3.org/2000/svg" viewBox="0 0 556.57 143.72">
  <defs>
    <style>
      .cls-1 {
        fill: #acfadf;
      }

      .cls-1, .cls-2, .cls-3 {
        stroke-width: 0px;
      }

      .cls-2 {
        fill: #fff;
      }

      .cls-3 {
        fill: #4e4feb;
      }
    </style>
  </defs>
  <g id="Layer_1-2" data-name="Layer 1">
    <g>
      <path class="cls-2" d="m317.88,110.8c-9.32,0-16.53-2.43-21.62-7.3-5.09-4.87-7.63-11.86-7.63-20.98s2.16-15.78,6.48-20.7c4.32-4.92,10.41-7.38,18.27-7.38s13.45,2.25,17.6,6.76c4.15,4.51,6.23,11.05,6.23,19.62,0,2.49-.1,4.83-.31,7.02h-39.14v-9.12h27.36c0-4.13-1.02-7.31-3.07-9.53-2.05-2.22-4.9-3.33-8.56-3.33-4,0-7.1,1.4-9.32,4.2-2.22,2.8-3.33,6.78-3.33,11.94,0,5.57,1.59,9.81,4.76,12.73,3.18,2.92,7.69,4.38,13.53,4.38,2.39,0,4.74-.13,7.04-.38,2.31-.26,4.65-.61,7.04-1.05l1.33,11.68c-3.38.61-6.46,1.01-9.25,1.18-2.78.17-5.25.26-7.4.26Z"/>
      <path class="cls-2" d="m338.96,66.69v-11.22h50.21v11.22h-50.21Zm13.27,16.96v-44.57h12.6v44.57h-12.6Zm25.26,27.15c-8.91,0-15.35-1.81-19.32-5.43-3.96-3.62-5.94-9.41-5.94-17.37v-7.94h12.6v6.92c0,4.2,1.06,7.26,3.18,9.17,2.12,1.91,5.62,2.87,10.5,2.87,1.6,0,3.33-.09,5.17-.28,1.84-.19,3.95-.44,6.3-.74l1.23,11.58c-2.29.41-4.53.72-6.74.92-2.2.21-4.53.31-6.99.31Z"/>
      <path class="cls-2" d="m397.7,109.77V32.92h12.65v76.85h-12.65Zm32.64,0v-33.81c0-3.21-.75-5.68-2.25-7.4-1.5-1.72-3.62-2.59-6.35-2.59-7.58,0-11.37,4.94-11.37,14.81l-3.18-15.47h4.41c.41-3.65,1.68-6.38,3.82-8.17,2.13-1.79,5.32-2.69,9.56-2.69,5.74,0,10.18,1.74,13.32,5.23,3.14,3.48,4.71,8.4,4.71,14.76v35.35h-12.65Z"/>
      <path class="cls-2" d="m479.03,110.8c-9.32,0-16.53-2.43-21.62-7.3-5.09-4.87-7.63-11.86-7.63-20.98s2.16-15.78,6.48-20.7c4.32-4.92,10.41-7.38,18.27-7.38s13.45,2.25,17.6,6.76c4.15,4.51,6.23,11.05,6.23,19.62,0,2.49-.1,4.83-.31,7.02h-39.14v-9.12h27.36c0-4.13-1.02-7.31-3.07-9.53-2.05-2.22-4.9-3.33-8.56-3.33-4,0-7.1,1.4-9.32,4.2-2.22,2.8-3.33,6.78-3.33,11.94,0,5.57,1.59,9.81,4.76,12.73,3.18,2.92,7.69,4.38,13.53,4.38,2.39,0,4.74-.13,7.04-.38,2.31-.26,4.65-.61,7.04-1.05l1.33,11.68c-3.38.61-6.46,1.01-9.25,1.18-2.78.17-5.25.26-7.4.26Z"/>
      <path class="cls-2" d="m500.62,109.77v-10.71h37.3v10.71h-37.3Zm2.05-43.6v-10.71h19.52l1.02,10.71h-20.54Zm9.68,43.6v-54.31h10.55l2.05,15.58v38.73h-12.6Zm12.6-23.36l-3.18-18.03h4.51c.58-9.29,5.34-13.94,14.29-13.94,5.33,0,9.32,1.78,11.99,5.33,2.66,3.55,4,8.91,4,16.09h-12.55c0-3.52-.59-6.05-1.77-7.58-1.18-1.54-3.08-2.31-5.71-2.31-3.89,0-6.8,1.78-8.71,5.33-1.91,3.55-2.87,8.59-2.87,15.11Z"/>
    </g>
    <g>
      <path class="cls-3" d="m246.55,70.33c-3.97,3.18-8.26,6.31-12.85,9.34-1.28.86-2.34,1.99-3.08,3.32v.02c-3.63,6.53-9.65,13.07-17.42,18.96-8.4,6.37-18.53,11.83-30.1,16.22-1.73.66-3.48,1.29-5.25,1.88-10.74,3.65-22.19,6.23-34.1,7.69-7.22.89-14.48,1.33-21.57,1.33-14.08,0-27.48-1.76-39.31-5.09-2.04-.57-4.04-1.2-5.99-1.86-4.87-1.68-9.42-3.64-13.58-5.88-6.98-3.76-12.52-8.11-16.43-12.94-.47-.57-.91-1.15-1.32-1.73-.02-.02-.03-.06-.06-.08-2.08-2.92.59-6.87,4.11-6.16,13.98,2.83,29.59,4.35,46.24,4.35,11.43,0,23.36-.72,35.56-2.21,27.16-3.34,52.07-10.11,72.67-19.06,6.58-2.85,12.73-5.93,18.38-9.2,2.06-1.19,4.06-2.41,5.99-3.65.01-.01.02-.01.03-.02,3.66-2.53,7.11-5.12,10.3-7.76.07-.09.14-.17.21-.27.05-.06.09-.13.14-.18.07-.09.13-.18.19-.29.06-.08.11-.16.17-.25.06-.09.11-.19.17-.29.06-.09.11-.18.16-.27.09-.16.19-.32.27-.49.07-.13.13-.24.18-.37.05-.09.09-.18.13-.27.03-.06.06-.13.09-.19.1-.24.21-.48.3-.73.03-.1.07-.21.11-.32.05-.13.08-.26.13-.39.05-.16.09-.31.13-.46.01-.03.02-.06.02-.09.05-.14.07-.26.1-.39.02-.13.05-.25.08-.38.03-.21.07-.41.1-.62.02-.11.03-.24.05-.35.01-.11.02-.23.05-.34.01-.16.02-.33.03-.49,0-.07,0-.14.01-.21,0-.19.01-.39.01-.58,0-2.81-.88-5.42-2.36-7.58-.63-.74-1.28-1.48-1.95-2.21-.07-.07-.14-.15-.21-.23-6.69-7.11-15.85-13.12-26.83-17.75-5.29-2.24-11.02-4.14-17.09-5.69.25.7.39,1.45.39,2.21,0,2.95-2.01,5.53-4.87,6.27-2.76.71-5.25,2.05-7.32,3.86.07.01.15.02.22.03.17.03.34.06.51.1,1.06.19,2.11.41,3.15.64.34.08.67.15,1.02.23.56.13,1.11.26,1.65.39.47.11.94.23,1.4.34.82.22,1.63.43,2.44.65.26.07.51.14.76.22.07.01.13.03.19.06.22.06.43.11.65.18.05.01.1.03.15.05.21.06.4.11.6.18.18.06.38.1.55.17.25.07.49.14.73.22.02,0,.03.01.06.02.21.06.41.13.62.19.02,0,.05.01.07.02.29.08.56.17.84.27,1.06.34,2.11.71,3.15,1.08.21.07.41.15.62.23.75.29,1.51.57,2.24.87.13.05.25.1.38.15.41.16.82.33,1.22.5,1.25.54,2.49,1.08,3.68,1.65.39.18.76.37,1.13.55.5.25,1,.5,1.49.76.05.01.09.03.14.07.27.14.55.29.82.43,1.16.63,2.28,1.27,3.37,1.93.57.34,1.14.71,1.7,1.06,2.79,1.83,5.3,3.76,7.48,5.81t.01.01c.07.06.14.11.19.18.35.37.57.87.57,1.4,0,.57-.24,1.1-.62,1.47,0,0-.01,0-.01.01-.16.15-.33.27-.52.37-.92.64-1.86,1.27-2.82,1.89-.64.42-1.29.83-1.94,1.24-1.06.66-2.13,1.31-3.24,1.96-2.58,1.52-5.27,2.99-8.07,4.4-8.36,4.27-17.68,8.09-27.83,11.42-15.75,5.18-32.75,8.91-50.5,11.09-11.37,1.4-22.75,2.11-33.78,2.11-18,0-34.99-1.91-49.67-5.46-2.48-.6-3.76-3.34-2.66-5.64.32-.66.66-1.32,1.04-2,3.62-6.51,9.64-13.07,17.41-18.96.34-.26.68-.51,1.04-.78.27-.21.56-.41.84-.63.4-.27.79-.55,1.19-.83.33-.23.66-.46.99-.68.06-.03.1-.07.16-.1,1.87-1.28,3.82-2.51,5.84-3.7.13-.07.26-.15.39-.22.21-.13.41-.24.63-.37.27-.16.56-.32.83-.48.17-.09.34-.19.52-.29.23-.14.47-.26.71-.4.52-.29,1.05-.57,1.59-.84.26-.15.54-.29.8-.42s.54-.29.81-.42c.35-.17.71-.35,1.06-.54.43-.21.86-.42,1.29-.63.05-.02.1-.05.16-.08.47-.23.94-.44,1.41-.67.56-.25,1.12-.51,1.68-.76.46-.21.9-.41,1.36-.6.19-.09.39-.17.58-.25,1.56-.68,3.15-1.33,4.77-1.97.48-.18.96-.38,1.45-.56,12.23-4.64,25.46-7.86,39.35-9.57,7.22-.89,14.48-1.33,21.57-1.33.29,0,.56,0,.84.01-1.11-.56-2.28-1-3.51-1.31-2.86-.74-4.86-3.32-4.86-6.27s2-5.53,4.86-6.27c.78-.19,1.54-.44,2.27-.75-7.45.01-15.15.48-22.95,1.44-22.13,2.73-42.29,9-58.84,17.59-.41.22-.82.43-1.22.65-.21.11-.41.22-.62.33-.42.23-.84.46-1.27.68-.4.23-.81.46-1.21.67-.22.13-.42.24-.64.37-.39.23-.78.46-1.18.68-.35.22-.72.42-1.08.64-2.33,1.4-4.55,2.84-6.7,4.32-.34.24-.68.48-1.03.72-.24.17-.47.34-.71.51-.78.56-1.54,1.12-2.28,1.69-.51.4-1.03.8-1.53,1.2-.18.14-.37.29-.54.43-.21.16-.41.32-.62.49-.27.23-.56.46-.83.68-.17.14-.33.29-.49.42-.74.63-1.46,1.25-2.17,1.88-.21.19-.41.38-.62.56-.48.44-.95.89-1.41,1.33-.19.18-.39.37-.58.56-.1.1-.22.22-.33.32-.11.11-.22.23-.33.33-.22.22-.42.42-.63.64-.26.27-.52.54-.79.81-.16.17-.31.33-.47.5-.41.43-.81.87-1.2,1.31-.15.15-.3.31-.43.47-.06.06-.1.13-.16.18-.17.21-.35.4-.52.6-.41.48-.81.96-1.2,1.44-.19.24-.39.48-.57.72-.19.24-.39.48-.57.72-.18.25-.38.49-.55.73-.37.49-.73.97-1.07,1.46-.52.74-1.02,1.47-1.51,2.22-.15.25-.31.49-.47.74-.15.25-.31.5-.46.74-.31.5-.59,1-.88,1.51-.15.25-.29.5-.42.76-.11.22-.23.43-.35.65-.03.07-.06.13-.09.18-.11.23-.23.46-.34.68-.26.5-.5,1.02-.74,1.52-.25.54-.48,1.07-.71,1.61-.1.24-.19.47-.29.7-.09.23-.18.44-.26.66-.1.26-.19.5-.29.76-.11.3-.22.6-.32.9-.09.26-.18.52-.26.78-.95-.39-1.88-.79-2.81-1.19-.71-.32-1.41-.64-2.1-.96-.32-.15-.64-.31-.95-.46-.34-.17-.68-.33-1.03-.5-.31-.16-.62-.32-.91-.47-.64-.33-1.25-.66-1.86-1-.31-.17-.6-.33-.9-.5-.27-.16-.56-.32-.83-.49-.06-.03-.13-.07-.18-.1-.23-.14-.46-.27-.68-.42-.27-.16-.54-.32-.79-.48-.84-.54-1.65-1.07-2.43-1.62-.24-.17-.48-.34-.72-.51-.27-.21-.55-.41-.82-.62-.15-.1-.3-.22-.44-.33-.07-.06-.15-.13-.23-.18-.44-.34-.87-.7-1.29-1.05-.19-.16-.38-.32-.56-.49-.48-.4-.94-.82-1.37-1.24-.18-.17-.37-.34-.54-.52-.19-.18-.39-.38-.57-.57-.1-.11-.21-.22-.31-.32-2.73,4.78-4.62,9.73-5.56,14.74.29.23.56.46.84.68.23.18.46.35.68.54.24.19.49.38.74.56.24.18.48.37.72.54.13.09.25.18.38.27.35.25.72.51,1.08.76.13.08.24.16.35.24.83.57,1.68,1.12,2.54,1.67,1.11.68,2.24,1.36,3.41,2.02.19.11.4.22.59.33.43.23.87.47,1.3.7.22.11.43.23.65.34.23.13.44.23.67.34.43.23.88.46,1.32.67.22.1.44.22.66.32.4.19.79.38,1.19.57.13.06.25.11.37.17.34.15.68.31,1.03.46.02.01.03.02.06.03.38.17.75.33,1.13.5.09.03.18.08.27.11.37.16.74.32,1.11.48.4.16.8.33,1.21.49.4.17.8.33,1.21.49.58.23,1.16.46,1.76.67.21.08.4.16.6.23.02.22.03.42.05.64.05.6.11,1.22.18,1.83.82,6.67,3.34,12.89,7.32,18.56.98,1.39,2.04,2.76,3.19,4.08,9.55,11.01,24.88,19.54,43.69,24.61,12.62,3.41,26.8,5.26,41.86,5.26,7.59,0,15.41-.47,23.35-1.45,57.02-7,100.99-37.66,103.67-70.56.11-1.41-1.55-2.27-2.66-1.38Z"/>
      <path class="cls-1" d="m151.73,19.1c4.61,1.19,8.67,3.73,11.75,7.16,2.46,2.78,4.3,6.15,5.26,9.86.1.39.43.58.75.58s.65-.19.74-.58c.83-3.23,2.34-6.19,4.35-8.74,3.16-4,7.6-6.97,12.69-8.28.78-.19.78-1.29,0-1.48-3.29-.84-6.29-2.37-8.85-4.44-3.96-3.15-6.88-7.55-8.18-12.59-.09-.39-.42-.58-.74-.58s-.65.19-.75.58c-1.08,4.24-3.32,8.02-6.34,11-2.92,2.86-6.58,4.99-10.67,6.04-.78.19-.78,1.29,0,1.48Z"/>
    </g>
  </g>
</svg>